<?xml version="1.0" encoding="UTF-8"?>
<svg width="301px" height="306px" viewBox="0 0 301 306" version="1.1" xmlns="http://www.w3.org/2000/svg" xmlns:xlink="http://www.w3.org/1999/xlink">
    <!-- Generator: Sketch 52.6 (67491) - http://www.bohemiancoding.com/sketch -->
    <title>Oval</title>
    <desc>Created with Sketch.</desc>
    <g id="Page-1" stroke="none" stroke-width="1" fill="none" fill-rule="evenodd">
      
        <path d="M157.117188,260.035156 C181.387217,260.035156 242.740393,276.437514 255.933594,270.605469 C276.815622,261.374582 242,224.198996 242,189 C242,175.316654 305.87416,117.16565 300.632813,105.199219 C290.666185,82.4445807 231.262378,110.07521 188.730469,111.515625 C165.68486,112.296104 130.062876,-12.8140514 123.988281,2.09375 C105.511719,47.4375 110.810813,99.6158698 90.1132812,119.742188 C70.9664166,138.360634 0.49609375,135.426217 0.49609375,163.027344 C0.49609375,176.797099 49.7776453,210.21028 55.0820313,222.238281 C63.2853984,240.83989 57.5085111,290.219741 67.3671875,303.050781 C77.7246061,316.530933 132.700953,260.035156 157.117188,260.035156 Z" id="Oval" fill="#000000" fill-rule="nonzero"></path>

    </g>
</svg>
