<?xml version="1.0" encoding="UTF-8"?>
<svg width="501px" height="403px" viewBox="0 0 501 403" version="1.1" xmlns="http://www.w3.org/2000/svg" xmlns:xlink="http://www.w3.org/1999/xlink">
    <!-- Generator: Sketch 49.3 (51167) - http://www.bohemiancoding.com/sketch -->
    <title>Group</title>
    <desc>Created with Sketch.</desc>
    <defs></defs>
    <g id="Page-1" stroke="none" stroke-width="1" fill="none" fill-rule="evenodd">
        <g id="Group" transform="translate(2.000000, 2.000000)" stroke="#979797">
            <path d="M132.425781,92.8554687 C125.216852,158.075233 142.313772,241.324403 62.0507813,252.679687 C53.6178307,253.872747 44.9517504,253.731335 36.5,252.679688 C33.8332464,252.347865 30.7981469,251.000668 29.5273437,248.632812 C27.9990157,245.785117 27.8737384,241.923518 29.1289062,238.945312 C38.1354607,217.574964 68.3343401,205.86348 89.0742188,200.25 C107.742302,195.197275 128.434443,191.849327 147.746094,191.027344 C209.150018,188.41374 316.712554,208.554664 319.289062,115.113281 C319.647562,102.111712 322.518368,88.6929919 319.289062,76.09375 C316.112572,63.7005685 308.025786,53.0007104 300.683594,42.5234375 C266.503297,-6.25167838 208.800334,-6.64091082 156.746094,10.578125 C147.558638,13.6172458 140.708085,21.4905297 133.398438,27.8320312 C117.445078,41.6724048 102.079397,56.1957558 87.0546875,71.0390625 C59.4707209,98.2899913 32.6343083,126.288114 5.6015625,154.085938 C3.64628622,156.096552 1.33391395,157.933803 0.1015625,160.453125 C-0.280825359,161.234849 0.947916667,161.973958 1.37109375,162.734375" id="Path" stroke-width="3"></path>
            <path d="M175.339844,202.984375 C191.543521,202.422249 206.697346,193.781535 222.871094,196.53125 C224.758536,196.852136 229.556632,198.876867 227.761719,199.542969 C214.378257,204.509644 199.958601,206.094712 186.261719,210.117188 C166.074736,216.045664 167.553692,241.231212 185.242188,249.425781 C198.829901,255.720576 211.8708,249.178601 221.222656,239.199219 C227.640982,232.350212 233.880751,222.415154 237.40625,213.714844 C239.891497,207.581691 242.422645,201.353481 243.523438,194.828125 C244.970618,186.249423 247.180666,160.350392 244.988281,168.769531 C240.123107,187.452644 238.062858,206.768225 235.433594,225.894531 C234.72168,231.07327 234.49423,236.365533 234.980469,241.570312 C235.057912,242.399273 236.224953,243.203599 237.03125,242.996094 L244.363281,242.996094 C249.275905,241.731802 255.525771,241.54167 258.539063,237.460938 C268.696078,223.705857 268.965564,202.845118 282.097656,191.894531 C288.432828,186.611759 282.299811,208.445507 283.558594,216.597656 C284.856361,225.002274 287.200513,233.233598 289.734375,241.351562 C289.99715,242.19344 291.296024,243.727113 291.800781,243.003906 C304.948023,224.166768 304.649172,199.107124 317.25,179.613281 C318.118948,178.268994 318.112812,182.865419 317.652344,184.398438 C314.66706,194.33722 302.275439,204.432598 307.023438,213.660156 C311.895345,223.128527 327.078899,221.140232 337.550781,223.070312 C344.356734,224.324723 351.423988,223.778812 358.3125,223.113281 C360.020243,222.948288 361.52054,221.748817 362.820313,220.628906 C365.466947,218.348511 368.309686,216.061657 370.027344,213.019531 C371.492399,210.424787 373.34954,206.982818 372.035156,204.308594 C361.604145,183.08583 329.232037,196.550993 323.773438,213.671875 C321.934888,219.43848 317.80369,226.767065 321.355469,231.667969 C325.335916,237.160369 334.152213,236.685279 340.90625,237.3125 C382.61488,241.185816 417.160221,221.333468 453.453125,203.949219" id="Path-2" stroke-width="4"></path>
            <path d="M497.933594,309.101562 C417.801869,299.198844 410.933203,295.543026 298.476562,311.769531 C268.2415,316.132185 239.76339,328.698828 210.671875,338.019531 C188.133457,345.240672 165.571781,352.524824 143.625,361.382812 C109.762332,375.050199 76.7124726,401.55309 37.71875,398.230469 C4.97365753,395.440288 -4.69807346,356.451496 11.3984375,331.214844 C28.5132594,304.381649 35.8250927,282.198071 66.1953125,277.898438 C80.1399098,275.924245 94.2057292,274.929688 108.210938,273.445312" id="Path-3" stroke-width="4"></path>
        </g>
    </g>
</svg>