<svg width="397px" height="122px" viewBox="0 0 397 122" version="1.1" xmlns="http://www.w3.org/2000/svg">
        <g id="eagle" transform="translate(3.000000, 2.000000)" fill-rule="nonzero" stroke="#979797" stroke-width="5">
            <path d="M37.5820312,17.484375 C94.0429688,17.484375 147.070313,38.546875 153.761719,38.546875 C158.222656,38.546875 165.063802,41.8072917 174.285156,48.328125 C181.14974,41.8072917 186.959635,38.546875 191.714844,38.546875 C196.470052,38.546875 203.134115,41.8072917 211.707031,48.328125 L234.125,38.546875 C276.833333,17.5703125 314.589844,7.08203125 347.394531,7.08203125" id="Path"></path>
            <path d="M347.394531,7.08203125 C360.740425,7.08203125 386.166802,-2.68993687 391.047544,1.88697603 C395.928285,6.46388893 358.278365,13.8007812 347.394531,13.6601562 C341.537279,13.5844774 351.631457,14.6583949 363.878315,15.3179564 C374.388335,15.8839794 386.961272,11.1669459 386.961272,13.6601562 C386.961272,16.782728 373.446523,22.2486795 363.878315,20.802615 C359.229165,20.0999786 353.734571,19.4717632 347.394531,18.9179687 C354.698765,21.7753434 360.193359,23.6112146 363.878315,24.4255822 C376.569526,27.2303133 384.72096,20.802615 386.961272,24.4255822 C388.16487,26.3720059 381.332351,28.1132167 369.83503,28.0647405 C365.703636,28.0473213 357.933758,27.574482 346.525396,26.6462225" id="Path-2"></path>
            <path d="M346.04745,26.971168 C352.577906,28.8293683 357.380867,30.1011503 360.456333,30.7865142 C371.875259,33.3312077 380.136242,28.0657293 382.318321,32.458443 C384.5004,36.8511567 350.409982,34.7220798 345.683915,34.7220798 C342.533203,34.7220798 338.951492,34.912294 334.938781,35.2927223 C300.540557,41.930071 269.75899,49.5938797 242.59408,58.2841482 C215.429169,66.9744166 187.505898,86.4789918 158.824268,116.797874 L171.876735,116.797874 L188.206821,78.8780403 L201.254454,116.797874 L216.216448,116.797874 C173.583373,82.9123387 146.859025,64.7537733 136.043406,62.3221774 C119.819977,58.6747837 49.0259172,50.8042727 32.2735258,53.3267614 C21.1052648,55.0084205 10.9782163,52.6097137 1.8923803,46.1306409 C2.06225231,41.408199 3.08920581,39.9029014 4.97324081,41.614748 C7.7992933,44.1825178 12.5908421,46.1306409 20.4516693,46.1306409 C25.6922208,46.1306409 29.6328396,44.6253432 32.2735258,41.614748 C14.3814218,42.509514 4.25437336,40.7922876 1.8923803,36.4630685 C-0.469612756,32.1338495 -0.469612756,29.96924 1.8923803,29.96924 C11.4191114,34.298459 18.210131,36.4630685 22.2654391,36.4630685 C26.3207472,36.4630685 29.6567761,36.0729531 32.2735258,35.2927223 C18.4892359,34.6688401 9.38914087,31.8949887 4.97324081,26.971168 C0.557340747,22.0473474 1.37504282,20.2521847 7.42634703,21.58568 C9.97056642,23.1772907 13.7502186,24.9724534 18.7653036,26.971168 C23.7803885,28.9698827 28.2831293,28.2634451 32.2735258,24.8518554 C19.3980511,24.4691646 11.1156582,21.4118545 7.42634703,15.6799252 C3.73703588,9.94799591 5.15585322,8.7029113 11.682799,11.9446714 C14.3313095,12.8465373 18.4252249,14.0916219 23.9645452,15.6799252 C29.5038656,17.2682285 34.0430276,17.9071789 37.5820313,17.5967764" id="Path-3"></path>
        </g>
</svg>
