<svg clip-rule="evenodd" fill-rule="evenodd" stroke-linejoin="round" stroke-miterlimit="1.41421" viewBox="0 0 265 125" xmlns="http://www.w3.org/2000/svg"><path d="m262.047 42.996c-.928-3.268-1.347-11.342-5.5-11.978-5.634-.864-3.373 5.824-2.59 8.96 1.09 4.36 1.936 8.302 2.168 12.827.22 4.265-.248 8.495-.097 12.743.093 2.63.31 4.62-.6 7.113-.72 1.98-1.202 4.06-1.78 6.084s-.51 3.807-.983 5.856c-.46 1.995-1.562 4.037-2.24 5.99-2.687 7.728-10.12 14.44-16.81 18.623-2.256 1.41-9.8 5.963-11.613 2.337-1.676-3.346-1.558-9.478-1.558-13.19 0-4.375-.938-8.304-2.728-12.277-1.46-3.242-1.054-9-.786-12.49.486-6.34 3.22-23.76 12.75-18.745 3.074 1.62 6.688 6.786 10.413 6.58 6.175-.342-.752-7.157-2.577-8.815-6.572-5.973-14.928-11.02-22.92-14.88-1.97-.95-4.098-1.076-6.254-1.076-1.71 0-2.343 3.185-.95 4.08 1.898 1.22 3.997 2.136 5.647 3.675 1.508 1.407 3.846 2.023 4.936 3.737 2.22 3.49-2.468 8.44-4.16 11.353-2.142 3.688-2.988 7.837-3.563 12.012-1.178 8.55-1.552 17.17.545 25.553.743 2.972-3.432-.154-4.214-.723-1.726-1.255-3.71-2.185-5.584-3.193-3.355-1.808-8.69.39-12.075 1.403-3.876 1.162-7.394 4.922-9.435 8.22-1.003 1.62-1.36 3.782-1.76 5.645-.238 1.11-.487 5.907-1.143 6.506-2.348 2.146-4.25-8.45-4.544-10.1-.786-4.405-1.273-8.705-2.487-13.022-.455-1.62-1.114-4.366-3.544-3.108-1.45.75-1.892 3.71-1.693 5.077.57 3.924.835 7.94 1.578 11.843.46 2.404.988 4.797 1.27 7.23.176 1.518.72 2.084-.788 2.536-1.226.367-1.53-.128-1.912-1.18-1.392-3.827-3.304-7.658-4.06-11.69-.822-4.382-1.315-9.23-3.46-13.158-1.472-2.7-3.32-.956-3.768 1.39-.372 1.958.082 3.782.62 5.704 1.166 4.17 1.7 8.215 2.31 12.48.305 2.125 1.07 4.882-.673 6.424-1.57 1.388-4.17 1.293-5.585.035-1.145-1.02-1.025-4.512-1.775-6.012-.878-1.755-1.22-3.758-1.54-5.684-.395-2.364-.893-4.613-1.494-6.934-.357-1.377-.892-4.876-2.1-5.602-2.277-1.365-4.202.74-4.36 3.11-.13 1.954.936 3.865 1.68 5.66 1.414 3.41 4.158 9.128 3.565 12.882-.505 3.202-1.48 3.247-4.53 3.247-3.062 0-3.36.184-4.91-2.603-2.12-3.82-1.987-8.636-2.878-12.89-.638-3.046-1.23-10.502-5.83-9.188-3.343.956-.443 8.965.374 11.253 1.088 3.047 4.9 10.425 1.367 12.783-1.316.878-4.965.065-6.464-.063-1.408-.12-4.782.1-5.968-.747-1.415-1.01-.735-4.503-.872-6.163-.155-1.885-.586-3.755-.706-5.642-.277-4.39-1.74-8.625-2.104-13.11-.174-2.153-.08-4.11.187-6.244.313-2.507 1.958-2.98 3.75-4.338 3.07-2.327 7.7-5.083 9.892-8.272 5.538-8.057 3.373-17.35-4.988-22.29-8.567-5.062-16.943-2.386-23.705 4.376-2.762 2.762-4.494 7.23-4.75 11.098-.3 4.5 1.686 7.7 4.61 10.89 2.7 2.945 6.654 6.487 8.364 10.123 1.73 3.682 1.9 9.13 2.06 13.14.163 4.073 1.326 7.872 1.326 11.9 0 1.594.454 4.717-1.69 4.717-1.95 0-3.957.158-5.89-.084-1.992-.25-4.69-.025-4.69-2.595 0-1.944-.563-3.654-.563-5.594 0-2.15-.377-4.187-.282-6.395.052-1.193.563-4.664-.94-5.32-10.335-4.523-3.768 15.3-7.38 18.717-1.18 1.115-4.536 1.584-6.064.987-2-.78-1.658-2.64-1.943-4.54-.643-4.28.44-8.225-.03-12.383-.265-2.32.176-4.488.332-6.84.146-2.18.26-3.736-2.287-3.736-6.128 0-4.534 6.263-4.534 10.637 0 1.883-1.46 3.665-1.566 5.564-.148 2.66-.174 5.463-.765 8.06-.366 1.608-5.376 2.25-6.694 1.407-1.756-1.12-1.108-4.397-1.025-6.142.195-4.09.746-8.106 1.306-12.19.25-1.817 1.53-4.16.988-5.924-.96-3.127-2.7-1.848-4.084-.05-1.73 2.25-2.588 2.826-3.063 5.836-.316 2.01-.54 4.043-.82 6.06-.317 2.288-.662 4.604-.775 6.91-.152 3.093.264 3.386-2.994 3.386-6.272 0-3.48-5.832-2.928-9.45.605-3.954-.364-8.173-.05-12.156.37-4.677-.307-9.103-.486-13.77-.174-4.534.22-8.608.72-13.09.45-4.06 3.508-8.39 4.957-12.254 1.52-4.052 3.75-8.135 5.858-11.908 4.092-7.324 10.19-15.298 9.31-24.115-.97-9.695-8.897-14.31-18.086-12.014-3.38.844-8.167 3.55-8.99 7.218-.797 3.543.676 9.436 5.64 7.05 2.7-2.292 1.372-8.332 5.494-8.826 5.247-.63 8.85 1.4 9.283 7.027.665 8.623-5.34 16.306-9.992 22.916-4.832 6.868-8.934 15.713-10.68 23.95-1.83 8.618-.31 16.956-.31 25.624 0 4.475.132 8.917.327 13.388.084 1.928 1.16 5.62-.938 6.784-1.664.925-3.948.092-5.594-.747-8.177-4.165-1.35-16.767-1.707-23.548-.104-1.977-.384-4.657-3.03-4.657-2.29 0-3.3 2.347-3.3 4.42 0 4.32-.188 8.97-.835 13.242-.986 6.516-6.49.895-8.843-1.872-2.977-3.5-5.4-6.685-7.144-10.965-1.55-3.806-2.837-7.367-2.28-11.547.366-2.737.746-5.04 1.646-7.64.544-1.575 2.758-3.295 3.917-4.536 1.478-1.582 3.484-2.846 3.314-5.218-.13-1.825-3.583-1.96-4.995-1.154-3.73 2.13-6.633 6.08-8.532 9.877-2.138 4.276-3.227 8.43-3.05 13.206.086 2.313.618 4.616 1.204 6.843.61 2.313 1.442 3.082 2.537 5.05 4.4 7.92 9.594 15.25 17.343 20.2 14.795 9.456 32.462 13.036 49.845 13.666 36.932 1.337 73.86 2.98 110.83 2.466 9.045-.125 17.84-.36 26.828-1.404 4.39-.51 8.69-1.425 13.096-1.89 4.946-.52 8.655-1.827 13.13-3.797 9.967-4.387 17.91-13.55 21.487-23.76 3.028-8.644 5.852-16.995 5.964-26.26.093-7.765.633-16.37-1.51-23.91zm-158.23 29.905c-5.504-4.192-7.705-9.517-3.3-15.39 1.42-1.893 4.91-3.953 6.967-5.06 2.16-1.16 6.05-.994 8.228.095 5.753 2.877 7.03 9.97 3.776 15.392-2.483 4.14-11.228 8.05-15.67 4.962zm106.092 39.952c-.507 2.23-1.094 2.507-3.252 2.84-6.636 1.02-13.212.965-19.775 2.195-3.723.137-4.655-2.582-4.655-5.715 0-3.257 2.45-5.932 4.13-8.515 3.935-6.055 11.745-5.816 17.168-2.627 2.377 1.397 5.318 4.748 6.485 7.266.698 1.506.24 3.056-.102 4.554z" fill="#323232" fill-rule="nonzero"/></svg>