<svg  xmlns="http://www.w3.org/2000/svg"  viewBox="0 0 200 50">
<path stroke="#000000" stroke-width="1" d="M26.0976+27.0732C26.0976+30.9162+35.4765+28.4786+36.9512+27.561C44.7317+22.7198+51.4236+10.1966+62.439+13.6585C65.4196+14.5953+67.5513+17.2541+69.5122+19.5122C75.1223+25.9723+76.8851+34.8351+67.439+38.6585C64.6919+39.7705+56.4857+39.3+56.9512+34.878C57.4003+30.6115+60.5382+27.0459+63.6585+24.3902C75.8197+14.0403+88.8768+30.4228+102.195+30C109.79+29.7589+120.801+22.783+117.439+13.6585C114.951+6.90569+107.818+10.7386+105.122+15C97.2723+27.4075+112.865+37.0642+123.659+36.0976C133.268+35.237+152.689+13.7947+138.293+12.1951C125.426+10.7655+127.256+31.2143+139.146+31.8293C146.105+32.1892+153.524+25.6962+156.707+20C156.797+19.8396+159.921+14.622+159.024+14.0244C156.054+12.0438+167.157+24.6221+167.195+24.878C167.51+27.0208+162.259+37.3688+162.561+37.561C165.856+39.6575+173.484+33.6488+175.488+32.1951C183.626+26.2909+187.041+24.014+196.596+24.5122" fill="none" stroke-linecap="round" opacity="1" stroke-linejoin="round"/>
</svg>
