<svg width="263" height="99" xmlns="http://www.w3.org/2000/svg"><path d="M104.595 14.29c24.618-5.396 45.5-5.396 62.648 0 25.72 8.094 30.428 13.58 46.607 6.304 16.18-7.276 31.125-23.465 39.758-18.746 5.755 3.146 8.632 7.294 8.632 12.442l-6.884-1.794 4.403 3.789c-1.702 1.31-3.752 1.31-6.151 0-3.6-1.965-5.36-6.066-15.844 1.965-10.484 8.031-15.144 15.543-16.38 20.867-1.236 5.323 4.548 17.148 6.171 22.085 1.624 4.936 4.38 1.887 3.287 13.27-.728 7.587-1.093 14.386-1.093 20.395l-8.746-.295 2.317-20.1c.799 1.208.026-.752-2.317-5.882-2.344-5.129-4.89-9.062-7.638-11.798l-13.101 5.288c-7.884 4.805-17.348 6.975-28.392 6.51-11.043-.464-19.701-3.73-25.974-9.796.686.43.686 1.525 0 3.286-.686 1.761 1.073 8.47 5.278 20.128l-5.278 15.337-10.005-2.678 5.827-17.005-7.58-16.66c-4.764-4.887-7.439-8.863-8.023-11.93-.585-3.065-2.373-8.204-5.364-15.414 9.1-1.516 7.71-.625-4.165 2.672-17.813 4.945-2.26 13.27-42.71 12.743C46.913 48.92 22.287 42.303 0 29.42c31.498 5.162 51.009 6.641 58.533 4.437C69.818 30.55 87.7 22.01 89.883 20.594c1.455-.945 6.36-3.046 14.712-6.304z" fill="#D8D8D8" stroke="#979797" fill-rule="evenodd"/></svg>