<svg   xmlns="http://www.w3.org/2000/svg"  version="1.1" viewBox="0 0 24 1024">
  <g>
    <path stroke="#ffffff" stroke-width="1" d="M6.65216+4.74211C6.07079+3.57935+3.62151+7.30331+3.87949+8.7652C4.65301+13.1485+6.33337+13.07+8.77244+16.3221C9.38383+17.1373+10.5852+19.9759+9.85976+20.9432C9.77312+21.0587+9.74134+21.1956+9.6423+20.9976" fill="#093b40" stroke-linecap="butt" opacity="1" stroke-linejoin="round"/>
    <path stroke="#ffffff" stroke-width="1" d="M9.58793+21.1607C11.1994+24.3837+4.04173+24.9507+5.23864+27.7933C6.02705+29.6658+6.73876+31.8677+8.06568+33.4474C11.6223+37.6814+19.7776+35.8102+21.5485+30.6747C22.9231+26.6882+19.3324+15.7241+14.4809+15.7241" fill="#093b40" stroke-linecap="butt" opacity="1" stroke-linejoin="round"/>
    <path stroke="#ffffff" stroke-width="1" d="M15.5138+12.299C5.94721+10.3857+19.0261+7.53506+17.0905+4.47027C13.7994-0.740494+7.59146+0.619439+5.89104+5.72069" fill="#093b40" stroke-linecap="butt" opacity="1" stroke-linejoin="round"/>
    <path stroke="#ffffff" stroke-width="1" d="M4.7471+30.4553C4.6449+31.2938+4.54271+32.1322+4.44051+32.9706" fill="#093b40" stroke-linecap="butt" opacity="1" stroke-linejoin="round"/>
    <path stroke="#ffffff" stroke-width="1" d="M8.38175+71.9376C8.36443+69.9925+13.9885+75.975+13.9885+75.975C13.9885+75.975+24.4306+74.317+20.0969+83.4275C15.7632+92.5381+23.7533+110.594+13.8318+97.3168C3.91021+84.0398+7.98551+82.8577+4.21905+90.7618C0.452594+98.6659+1.75354+86.4923+2.20928+83.2514C2.66503+80.0105+3.80627+72.3692+3.80627+72.3692C3.80627+72.3692+8.39907+73.8827+8.38175+71.9376Z" fill="#093b40" stroke-linecap="butt" opacity="1" stroke-linejoin="round"/>
    <path stroke="#ffffff" stroke-width="1" d="M6.98763+41.2857C6.02548+36.4624+4.81465+45.7627+4.8955+37.5004C4.97635+29.238+18.1022+40.787+18.1022+40.787L23.6499+67.5284" fill="#093b40" stroke-linecap="butt" opacity="1" stroke-linejoin="round"/>
    <path stroke="#ffffff" stroke-width="1" d="M4.20895+64.0504C5.31134+63.4573+5.68463+62.8301+6.16512+62.6664C6.64561+62.5026+6.30332+61.9192+8.24975+62.3314C10.1962+62.7437+10.6528+62.9055+11.2323+63.9299C11.8118+64.9543+11.5404+65.2424+12.295+66.5043C13.0497+67.7661+12.7331+67.7943+13.4665+68.4705C14.1999+69.1468+16.6788+69.3863+16.6788+69.3863C16.6788+69.3863+17.4795+68.4438+18.02+68.1626C18.5604+67.8813+17.8211+65.0097+19.2465+67.9765C20.672+70.9433+20.7983+71.6713+20.5325+72.146C20.2666+72.6207+19.5102+73.0466+19.1507+73.1357C18.7912+73.2249+18.5264+73.8601+17.5498+73.7885C16.5731+73.7169+15.7955+73.5572+15.2484+73.4914C14.7013+73.4257+13.7012+72.4474+13.2197+72.4507C12.7381+72.4539+10.8856+71.8111+10.6383+71.1576C10.391+70.5041+9.68942+69.3937+9.68942+69.3937L7.64219+69.4811L6.65307+69.492C6.65307+69.492+5.61752+69.6985+5.21848+69.7142C4.81943+69.7299+3.85097+68.9337+3.85097+68.9337L3.59702+67.9331L2.94983+66.5187L2.49796+65.7668C2.49796+65.7668+2.71761+64.8716+3.20154+64.5734C3.68548+64.2751+3.10656+64.6434+4.20895+64.0504Z" fill="#093b40" stroke-linecap="butt" opacity="1" stroke-linejoin="round"/>
    <path stroke="#ffffff" stroke-width="1" d="M34.6638+148.398" fill="#093b40" stroke-linecap="butt" opacity="1" stroke-linejoin="round"/>
  </g>
</svg>
