<svg style="fill-rule:evenodd;clip-rule:evenodd;stroke-linecap:round;stroke-linejoin:round;"  xmlns="http://www.w3.org/2000/svg"  version="1.1" viewBox="0 0 100 100">
<path     d="M54.875+42.9375C46.7917+42.9375+40.25+49.2641+40.25+57.0938L40.25+57.5312C40.25+65.3609+46.7917+71.7188+54.875+71.7188C61.4196+71.7188+66.9088+67.5208+68.7812+61.7812C68.5646+61.9898+68.3365+62.2754+68.125+62.4062C67.6814+62.6807+67.1988+62.8438+66.6875+62.8438C66.0785+62.8438+65.5871+62.6247+65.2188+62.2188C64.8503+61.8128+64.6875+61.2629+64.6875+60.5938C64.6875+59.9171+64.8616+59.258+65.2188+58.5625C65.5759+57.867+66.0249+57.2674+66.5625+56.8125C67.1001+56.3576+67.63+56.1563+68.1562+56.1562C68.4645+56.1562+68.707+56.2258+68.9062+56.4062C69.1055+56.5867+69.2188+56.8393+69.2188+57.125C69.2188+57.7039+68.8816+58.2648+68.25+58.8438C67.6184+59.4227+66.7777+59.9065+65.6875+60.3125C65.68+60.3726+65.6563+60.4561+65.6562+60.5312C65.6562+61.05+65.808+61.4855+66.0938+61.8125C66.3795+62.1396+66.7364+62.2812+67.1875+62.2812C67.5409+62.2812+67.8879+62.1905+68.2188+61.9688C68.4425+61.8187+68.6931+61.5153+68.9375+61.25C69.2748+60.0556+69.5312+58.8293+69.5312+57.5312L69.5312+57.0938C69.5312+49.2641+62.9583+42.9375+54.875+42.9375ZM68.9375+61.25C68.8875+61.427+68.8381+61.6071+68.7812+61.7812C69.019+61.5523+69.2561+61.4163+69.5+61.0938L69.2812+60.9062C69.1596+61.0595+69.0544+61.1231+68.9375+61.25ZM62.1875+46.7812L59.125+60.125C59.2979+59.719+59.5094+59.3134+59.75+58.9375C59.9906+58.5616+60.2543+58.2009+60.5625+57.8438C60.8708+57.4866+61.1518+57.1943+61.4375+56.9688C61.8059+56.6755+62.1903+56.4554+62.5625+56.3125C62.9347+56.1696+63.3463+56.085+63.8125+56.0625L63.625+56.9688C63.3994+56.9236+63.2065+56.9062+63.0938+56.9062C62.2066+56.9062+61.3919+57.3553+60.625+58.25C60.9333+59.077+61.2479+59.8071+61.5938+60.4688C61.7892+60.8522+61.9784+61.1769+62.125+61.4062C62.2716+61.6356+62.4072+61.801+62.5312+61.9062C62.6553+62.0115+62.786+62.0625+62.9062+62.0625C63.192+62.0625+63.5327+61.8336+63.9688+61.375L64.0625+61.25L64.2188+61.4375C63.4594+62.3548+62.9083+62.8125+62.5625+62.8125C62.3294+62.8125+62.1093+62.703+61.9062+62.5C61.7033+62.297+61.4582+61.965+61.1875+61.4688C60.7138+60.6041+60.332+59.7744+60.0312+59C59.3245+60.1654+58.883+61.3433+58.6875+62.5312L57.9375+62.75L60.9688+47.3438L62.1875+46.7812ZM49.3125+47.5625C49.8463+47.5625+50.2742+47.7267+50.5938+48.0312C50.9133+48.3357+51.0625+48.7312+51.0625+49.25C51.0625+49.8289+50.8834+50.4347+50.5+51.0625C50.1166+51.6903+49.6078+52.2575+48.9688+52.75C48.3297+53.2425+47.6355+53.5782+46.9062+53.7812L46.5938+52.9375C47.293+52.7345+47.9697+52.421+48.5938+52C49.2178+51.579+49.7054+51.105+50.0625+50.5938C50.4196+50.0825+50.5938+49.59+50.5938+49.0938C50.5937+48.7253+50.4868+48.4293+50.25+48.2188C50.0132+48.0082+49.6797+47.9062+49.2812+47.9062C48.8076+47.9063+48.2826+48.0331+47.7188+48.2812C47.1549+48.5294+46.6151+48.8689+46.0625+49.3125C45.5099+49.7561+44.9725+50.2822+44.4688+50.9062C43.9199+51.5904+43.4622+52.3182+43.0938+53.0625C42.7253+53.8068+42.438+54.5418+42.25+55.3125C42.062+56.0831+41.9687+56.8917+41.9688+57.7188C41.9688+59.1247+42.2909+60.2392+42.9375+61.0625C43.5841+61.8858+44.4735+62.3125+45.5938+62.3125C46.3155+62.3125+47.0071+62.1358+47.6875+61.8125C48.3679+61.4892+49.1516+60.9469+50.0312+60.1875L50.2188+60.0312L50.3438+60.2812C49.449+61.1684+48.5585+61.8377+47.6562+62.2812C46.754+62.7248+45.8548+62.9687+44.9375+62.9688C44.1105+62.9688+43.3616+62.7697+42.7188+62.375C42.0759+61.9803+41.5996+61.4292+41.25+60.7188C40.9004+60.0083+40.7188+59.1736+40.7188+58.2188C40.7188+57.527+40.8282+56.7831+41.0312+56.0312C41.2342+55.2794+41.5353+54.5206+41.9375+53.75C42.3397+52.9794+42.7949+52.253+43.3438+51.5312C43.9227+50.7644+44.5745+50.074+45.2812+49.4688C45.988+48.8635+46.6957+48.3933+47.4062+48.0625C48.1167+47.7317+48.7486+47.5625+49.3125+47.5625ZM54.9688+56.1875C55.6003+56.1875+56.0815+56.3952+56.4688+56.8125C56.856+57.2298+57.0625+57.7759+57.0625+58.4375C57.0625+59.1593+56.8884+59.8546+56.5312+60.5312C56.1741+61.2079+55.7077+61.7864+55.125+62.2188C54.5423+62.6511+53.9377+62.8437+53.3438+62.8438C52.7047+62.8438+52.2035+62.6511+51.8125+62.2188C51.4215+61.7864+51.2187+61.2067+51.2188+60.5C51.2188+59.8233+51.4166+59.1417+51.7812+58.4688C52.1459+57.7958+52.6086+57.2648+53.1875+56.8438C53.7664+56.4227+54.3673+56.1875+54.9688+56.1875ZM68.0625+56.4062C67.5738+56.4062+67.0625+56.7918+66.5625+57.5625C66.0625+58.3331+65.7777+59.1753+65.6875+60.0625C66.4995+59.7016+67.1264+59.2873+67.5625+58.8438C67.8557+58.543+68.0695+58.2208+68.25+57.875C68.4304+57.5291+68.5313+57.2157+68.5312+56.9375C68.5312+56.5841+68.3858+56.4062+68.0625+56.4062ZM54.875+56.4688C54.5592+56.4688+54.2582+56.547+53.9688+56.75C53.6793+56.953+53.3968+57.2653+53.1562+57.6562C52.8856+58.1074+52.6767+58.6173+52.5+59.2188C52.3233+59.8202+52.2188+60.3776+52.2188+60.8438C52.2188+61.4001+52.3445+61.8243+52.5625+62.125C52.7805+62.4257+53.094+62.5625+53.5+62.5625C54.1541+62.5625+54.7225+62.1285+55.2188+61.2188C55.4744+60.7526+55.6621+60.2039+55.8125+59.625C55.9629+59.0461+56.0625+58.5037+56.0625+58C56.0625+57.5489+55.9405+57.1995+55.7188+56.9062C55.497+56.613+55.2208+56.4688+54.875+56.4688Z" opacity="1" fill="#d21e0b"/>
<path
  stroke="#1a1ede"
  stroke-width="1.32" d="M54.6083+76.2741L37.1392+66.6415L37.1392+47.3764L54.6083+37.7439L72.0774+47.3765L72.0774+66.6415L54.6083+76.2741Z" fill="none" stroke-linecap="butt" opacity="1" stroke-linejoin="round"/>
<path
  class="greySquare"
  stroke="#3e66a5"
  stroke-width="1.32" d="M33.1064+34.907L76.7217+34.907L76.7217+79.3086L33.1064+79.3086L33.1064+34.907Z" fill="none" stroke-linecap="round" opacity="1" stroke-linejoin="round"/>
</svg>
